<svg version="1.1" id="Layer_1" xmlns="http://www.w3.org/2000/svg" xmlns:xlink="http://www.w3.org/1999/xlink" x="0px" y="0px"
	 width="100%" viewBox="0 0 2000 2616" enable-background="new 0 0 2000 2616" xml:space="preserve">
<path fill="#D50140" opacity="1.000000" stroke="none" 
	d="
M353.445251,960.623474 
	C350.749817,937.973267 347.377686,916.245911 345.852936,894.389771 
	C343.724121,863.875549 342.261566,833.276245 341.779388,802.693481 
	C340.671478,732.415955 340.254028,662.126953 339.726959,591.841370 
	C339.594604,574.188782 339.834076,556.523010 340.385254,538.878296 
	C341.236572,511.625397 342.537018,484.386749 343.575958,457.139313 
	C343.931274,447.821075 343.947845,438.489502 344.333893,429.172913 
	C346.095795,386.649139 348.193481,344.145264 354.001709,301.932373 
	C354.861420,295.683929 356.259399,289.496033 357.669281,283.339905 
	C359.923889,273.495514 366.294708,267.722961 376.149933,266.115570 
	C389.275421,263.974731 402.438629,262.046478 415.614227,260.234650 
	C476.941650,251.801300 537.927856,241.471741 598.532043,228.766113 
	C648.720337,218.244186 698.485474,206.112000 747.760010,191.960709 
	C800.948914,176.685211 853.297729,158.880249 903.534973,135.614395 
	C928.868164,123.882126 953.074890,109.715614 977.775757,96.621162 
	C983.954224,93.345840 990.194092,90.160553 996.190552,86.574188 
	C1003.833008,82.003418 1010.975891,82.156799 1018.569641,86.932190 
	C1029.838013,94.018394 1041.662720,100.231583 1052.827759,107.468605 
	C1091.648682,132.631332 1133.878906,150.694031 1176.876709,167.032410 
	C1238.879517,190.592377 1302.339478,209.541092 1366.813843,225.052658 
	C1418.928467,237.590683 1471.408936,248.340683 1524.741943,254.201904 
	C1548.852539,256.851593 1573.116455,258.077423 1597.263672,260.432983 
	C1609.470459,261.623718 1621.640381,263.528046 1633.700439,265.785431 
	C1643.632202,267.644440 1649.368896,274.093445 1650.373291,284.351532 
	C1651.505737,295.917572 1653.239136,307.469574 1653.575684,319.060638 
	C1654.763916,359.991943 1655.760254,400.933563 1656.287476,441.878235 
	C1657.188110,511.825684 1657.794067,581.777649 1658.279663,651.729370 
	C1658.448486,676.049622 1658.066650,700.378052 1657.621094,724.696960 
	C1657.169800,749.318237 1656.528564,773.939880 1655.606812,798.547668 
	C1654.486450,828.457520 1653.476685,858.385071 1651.534424,888.247437 
	C1648.622070,933.026978 1645.774048,977.838623 1641.376465,1022.486694 
	C1635.736816,1079.743164 1628.472046,1136.832397 1616.410034,1193.185181 
	C1608.105103,1231.985352 1598.971191,1270.651123 1581.765747,1306.585083 
	C1571.156494,1328.742798 1558.983521,1350.295898 1545.866211,1371.081421 
	C1506.322632,1433.741943 1460.615479,1491.744141 1410.942383,1546.700439 
	C1364.299805,1598.303955 1312.106323,1643.596313 1255.990723,1684.484375 
	C1210.417480,1717.690796 1162.910645,1747.855469 1111.915771,1772.067993 
	C1088.189697,1783.333130 1063.708984,1793.041870 1039.380859,1802.992920 
	C1026.054443,1808.443726 1012.639343,1807.661865 999.840942,1800.668579 
	C986.696472,1793.485840 973.425720,1786.515137 960.493103,1778.967163 
	C893.732361,1740.002808 828.038208,1699.373779 766.226379,1652.791626 
	C732.441895,1627.330933 699.715393,1600.575562 668.980225,1571.473389 
	C650.122070,1553.617065 631.035278,1535.956177 612.975525,1517.312256 
	C568.734985,1471.640259 526.258179,1424.353149 486.437622,1374.746582 
	C457.117218,1338.220703 436.721344,1296.982544 421.628693,1252.762085 
	C397.160767,1181.072876 379.502258,1107.702759 365.834412,1033.304810 
	C361.446960,1009.422546 357.656372,985.430603 353.445251,960.623474 
M1520.065552,1290.569702 
	C1516.391235,1294.191040 1512.248901,1297.450562 1509.121216,1301.494751 
	C1493.027588,1322.305298 1477.453003,1343.520142 1461.211670,1364.212891 
	C1434.877441,1397.764404 1405.915283,1428.957031 1375.067627,1458.406860 
	C1358.447998,1474.273560 1342.284912,1490.643799 1325.215088,1506.008423 
	C1295.291382,1532.942261 1265.167725,1559.675781 1234.501709,1585.756836 
	C1200.233643,1614.901245 1164.900269,1642.868774 1125.647461,1665.064819 
	C1091.459473,1684.396729 1056.232422,1701.884888 1021.646057,1720.524536 
	C1015.337524,1723.924438 1010.315979,1723.706543 1004.095093,1720.391479 
	C973.533264,1704.106445 942.414001,1688.842529 912.136841,1672.054199 
	C876.913940,1652.523682 841.533020,1633.070679 807.701050,1611.285034 
	C749.537720,1573.831787 696.447754,1529.884033 650.034607,1478.367920 
	C623.316956,1448.712891 596.632141,1418.948853 571.535217,1387.936890 
	C549.357178,1360.531860 529.397156,1331.331787 508.465271,1302.918701 
	C505.581177,1299.003906 502.739655,1295.057861 499.878418,1291.126221 
	C499.074860,1291.519043 498.271301,1291.911865 497.467743,1292.304688 
	C499.358002,1297.782715 500.907806,1303.407593 503.197296,1308.713379 
	C513.301392,1332.129395 527.780945,1352.901611 542.978027,1373.174194 
	C590.909546,1437.113647 646.536011,1493.966431 705.402954,1547.687134 
	C755.674683,1593.563965 810.003357,1634.210205 867.541077,1670.633179 
	C915.441467,1700.955444 965.471558,1727.396729 1015.586548,1753.732300 
	C1018.760986,1755.400635 1021.365601,1755.845581 1024.924194,1754.589722 
	C1061.812622,1741.571167 1096.884521,1724.789307 1130.217041,1704.349365 
	C1204.028931,1659.086914 1271.758057,1605.836182 1334.673584,1546.553223 
	C1378.102051,1505.632202 1418.619873,1461.915894 1453.592773,1413.336304 
	C1481.074707,1375.162354 1507.603516,1336.484131 1520.897949,1290.210815 
	C1520.820557,1289.955444 1520.792114,1289.665649 1520.646484,1289.458130 
	C1520.564819,1289.341797 1520.289062,1289.361694 1520.100830,1289.320312 
	C1520.592407,1289.831787 1521.084106,1290.343140 1520.065552,1290.569702 
M418.025482,999.280945 
	C418.734344,1002.123901 419.443207,1004.966858 420.152039,1007.809814 
	C420.889069,1007.589661 421.626099,1007.369568 422.363129,1007.149475 
	C421.586670,1004.099792 420.810181,1001.050110 420.211212,996.183167 
	C418.941772,979.618713 417.240936,963.073914 416.488342,946.485962 
	C414.649170,905.947449 412.433105,865.399536 411.911957,824.835510 
	C411.437469,787.903992 412.685638,750.937378 413.756256,714.003052 
	C414.584625,685.425171 416.414032,656.877625 417.613281,628.308838 
	C419.064026,593.750000 420.370941,559.184937 421.640594,524.618896 
	C422.409882,503.675446 423.089447,482.727661 423.632629,461.777252 
	C424.400391,432.166687 424.956055,402.550629 425.722778,372.940033 
	C425.865479,367.429352 426.575928,361.933380 427.028442,356.380127 
	C435.436279,355.633362 442.686188,354.800171 449.959900,354.378021 
	C474.187408,352.971893 498.439453,351.953461 522.652893,350.347076 
	C569.901917,347.212372 616.387390,338.937103 662.532471,328.655548 
	C713.934021,317.202759 764.413940,302.527557 813.884583,284.448456 
	C853.025269,270.144409 891.491882,254.195206 927.818054,233.685608 
	C950.414673,220.927658 972.102417,206.570480 994.427979,193.318512 
	C1012.247009,182.741547 1014.200562,183.390701 1031.070068,195.355881 
	C1051.960693,210.173096 1072.622437,225.448959 1094.462280,238.755447 
	C1118.875977,253.629990 1143.752930,268.169281 1169.751953,279.927612 
	C1222.788574,303.914062 1279.034668,317.887482 1336.183960,328.235077 
	C1377.800415,335.770203 1419.783203,340.151337 1462.003296,342.186066 
	C1479.276978,343.018585 1496.582642,343.323669 1513.877930,343.537140 
	C1533.462280,343.778931 1553.071533,343.108124 1572.631470,343.850952 
	C1588.329712,344.447083 1596.154785,351.179810 1598.110107,366.721313 
	C1600.802368,388.120453 1602.061401,409.709503 1603.601685,431.240997 
	C1604.872192,449.003052 1605.659546,466.799652 1606.661133,484.580933 
	C1607.219727,484.568848 1607.778442,484.556732 1608.337036,484.544647 
	C1608.337036,476.246155 1608.337036,467.947632 1608.337036,459.649139 
	C1608.337036,432.653198 1608.570312,405.654449 1608.247559,378.662354 
	C1608.060791,363.042358 1607.230957,347.416779 1606.225952,331.823669 
	C1605.287109,317.259064 1602.032104,313.546722 1587.808594,311.810699 
	C1571.979736,309.878693 1555.892700,309.754028 1540.183960,307.204773 
	C1494.557007,299.800385 1448.879883,292.494751 1403.557983,283.466797 
	C1328.474731,268.510529 1253.722900,252.002396 1181.457031,225.986938 
	C1136.900269,209.946655 1093.223145,191.975922 1052.115967,168.250153 
	C1040.010498,161.263275 1028.057617,154.009644 1016.099854,146.770676 
	C1010.451477,143.351257 1004.950073,143.233902 999.068848,146.247208 
	C992.850525,149.433212 986.385681,152.134201 980.110413,155.213928 
	C963.066467,163.578629 946.271057,172.480774 929.009949,180.366104 
	C875.574524,204.776794 819.870728,222.858765 763.398987,238.692123 
	C688.065613,259.813843 612.003540,277.935272 535.285889,293.241943 
	C497.458679,300.789185 459.639832,308.486511 420.933502,310.543732 
	C404.155853,311.435486 403.880219,312.008087 402.489044,329.732666 
	C398.952209,374.795349 395.305389,419.856079 392.499084,464.967163 
	C390.455261,497.822113 389.455444,530.748901 388.420807,563.657227 
	C387.761383,584.630432 387.526031,605.632202 387.747253,626.614319 
	C388.087708,658.898132 388.835297,691.179871 389.690918,723.455139 
	C390.369812,749.064392 390.697876,774.719177 392.570618,800.251892 
	C395.122742,835.047363 398.104828,869.860901 402.565735,904.452209 
	C406.602264,935.752502 412.871185,966.764954 418.025482,999.280945 
M551.489258,382.386261 
	C540.248047,383.486176 529.028198,385.081360 517.760498,385.567169 
	C501.793121,386.255615 485.789917,386.092621 469.803375,386.372803 
	C466.286041,386.434448 462.774506,386.828613 458.751434,387.104584 
	C457.919098,407.094391 457.043121,425.991150 456.367004,444.895081 
	C455.451263,470.497894 454.838287,496.112152 453.817444,521.710449 
	C452.850372,545.960266 451.453400,570.192566 450.377167,594.438477 
	C449.373962,617.038696 448.760681,639.657837 447.584198,662.248230 
	C446.045929,691.784607 443.499237,721.279907 442.504944,750.830566 
	C440.836609,800.414185 440.997406,850.009521 445.625488,899.480286 
	C448.907074,934.558289 451.509155,969.724243 455.847595,1004.673035 
	C461.990021,1054.154541 469.531647,1103.461182 476.322693,1152.863525 
	C480.639282,1184.265137 489.677765,1213.916138 507.438965,1240.534180 
	C524.617554,1266.279297 540.920166,1292.646973 558.946838,1317.780518 
	C602.861023,1379.007324 650.533936,1437.072876 705.414551,1489.022705 
	C740.584717,1522.314697 778.366455,1552.197754 818.537109,1579.107788 
	C879.812195,1620.155518 945.660461,1653.111084 1010.778259,1687.356689 
	C1014.231689,1689.172729 1016.937622,1688.799805 1020.084900,1687.188599 
	C1030.759766,1681.723755 1041.612061,1676.594727 1052.176514,1670.927246 
	C1087.728394,1651.854614 1121.588989,1629.992554 1154.555908,1606.839111 
	C1176.051880,1591.742065 1197.146851,1575.915527 1217.217896,1558.988892 
	C1241.873413,1538.195679 1265.458740,1516.114868 1289.169312,1494.225098 
	C1316.548950,1468.947998 1343.729248,1443.448730 1370.692993,1417.728394 
	C1410.648193,1379.615723 1444.894531,1336.713623 1474.671021,1290.332764 
	C1484.700562,1274.710693 1494.315552,1258.383057 1501.071533,1241.180664 
	C1521.801025,1188.399658 1536.325195,1133.684326 1547.283081,1078.081055 
	C1560.291870,1012.072327 1567.141479,945.261536 1571.512817,878.201172 
	C1573.502319,847.679504 1574.512451,817.087585 1575.567871,786.513733 
	C1576.211304,767.874268 1576.430786,749.205322 1576.255737,730.555176 
	C1575.783813,680.274841 1575.104248,629.995789 1574.293091,579.719666 
	C1573.874268,553.768250 1573.024414,527.823486 1572.324707,501.876984 
	C1571.678955,477.927917 1571.318237,453.963959 1570.170654,430.038239 
	C1569.439453,414.794250 1567.808960,399.571167 1565.980347,384.411255 
	C1565.038818,376.606079 1564.394043,376.615509 1556.290771,376.361176 
	C1534.676025,375.682678 1513.052734,375.216248 1491.447632,374.309753 
	C1461.878540,373.069153 1432.255737,372.319397 1402.776855,369.890686 
	C1350.952759,365.621033 1299.752563,356.959900 1249.840454,342.220734 
	C1219.865845,333.369232 1190.059570,323.621490 1160.921143,312.353577 
	C1129.458252,300.186768 1101.394897,281.243195 1072.680786,263.722473 
	C1052.227539,251.242386 1031.300415,239.540497 1010.780334,227.167175 
	C1004.756165,223.534698 1000.325317,225.028870 995.594727,229.167084 
	C991.113525,233.087112 986.654968,237.233780 981.561951,240.213257 
	C969.498535,247.270370 957.316956,254.218948 944.730713,260.270538 
	C913.233643,275.414734 881.724426,290.578461 849.756104,304.682587 
	C827.247681,314.613068 804.416870,324.245575 780.945984,331.460876 
	C745.349182,342.403900 709.222900,351.748352 673.042175,360.634369 
	C633.612793,370.318268 593.641113,377.459747 551.489258,382.386261 
z"/>
<path fill="#D60140" opacity="1.000000" stroke="none" 
	d="
M1241.954224,2580.343262 
	C1129.025146,2580.343262 1017.086914,2580.343262 902.996460,2580.343262 
	C904.785706,2577.139404 905.342590,2574.603760 906.595886,2574.192871 
	C910.027405,2573.068359 913.735657,2572.697266 917.363220,2572.277588 
	C934.531860,2570.291992 948.376282,2557.418701 946.166870,2537.100342 
	C945.383362,2529.894531 943.917419,2522.527344 941.310974,2515.796143 
	C930.128723,2486.917725 918.421509,2458.242432 906.847229,2429.516602 
	C905.984741,2427.375977 904.663086,2425.419922 903.248352,2422.813477 
	C900.159363,2422.660400 896.910583,2422.362061 893.661560,2422.359619 
	C852.330261,2422.328125 810.998962,2422.326172 769.667664,2422.348389 
	C759.650757,2422.353760 759.627014,2422.397461 755.942505,2431.528564 
	C746.223450,2455.615234 736.424377,2479.670410 726.898865,2503.833496 
	C724.717468,2509.366699 722.663025,2515.188232 722.000977,2521.041016 
	C719.217529,2545.647217 735.574219,2567.138428 760.016052,2571.725586 
	C762.950256,2572.276367 766.063904,2572.363037 768.766846,2573.467041 
	C770.349487,2574.113281 771.283875,2576.346924 772.850952,2578.289551 
	C763.930359,2580.845947 502.846710,2581.125732 491.776031,2578.610840 
	C493.470612,2576.642822 494.438324,2574.434570 495.910461,2574.020752 
	C499.720612,2572.949219 503.768524,2572.755127 507.694366,2572.058105 
	C527.346741,2568.568848 538.156433,2553.345947 534.411682,2533.614014 
	C532.870605,2525.493408 530.670288,2517.371094 527.672974,2509.677002 
	C517.400391,2483.307129 506.481689,2457.189453 496.187256,2430.827637 
	C493.792206,2424.694824 490.731140,2422.119629 483.787811,2422.174561 
	C441.459229,2422.510498 399.125977,2422.462158 356.796143,2422.217285 
	C350.402130,2422.180420 347.327484,2424.559082 345.049042,2430.344727 
	C335.290009,2455.125244 325.049011,2479.715088 315.136780,2504.436035 
	C311.001129,2514.750244 308.252289,2525.384277 311.187958,2536.569336 
	C316.489410,2556.768555 330.037018,2568.030518 350.135712,2572.050293 
	C353.059906,2572.635010 356.126434,2572.906006 358.826599,2574.038574 
	C360.103943,2574.573975 360.671173,2576.802246 361.678894,2578.458984 
	C353.585449,2580.744141 254.342072,2581.178223 243.498398,2579.204834 
	C241.801239,2576.261230 242.688751,2573.807617 245.688690,2572.853760 
	C269.467682,2565.289795 282.932068,2546.684814 294.242889,2526.425293 
	C301.187134,2513.986816 306.478485,2500.572998 311.901154,2487.346680 
	C344.359375,2408.177490 376.639465,2328.935547 408.980774,2249.718262 
	C425.341492,2209.644531 441.624084,2169.538330 458.205231,2129.555908 
	C459.693359,2125.967529 459.586273,2120.126953 465.454346,2119.972900 
	C471.512817,2119.813477 471.260529,2125.605469 472.736908,2129.268799 
	C511.323669,2225.013916 549.756104,2320.821777 588.309082,2416.580566 
	C601.986572,2450.553223 615.731567,2484.501221 629.797424,2518.314209 
	C636.611816,2534.695557 645.364746,2549.957275 658.712769,2562.166260 
	C666.634583,2569.411865 668.901978,2569.591309 677.124939,2562.271240 
	C694.119751,2547.142578 706.375549,2528.705322 714.941223,2507.745605 
	C741.643311,2442.406982 768.287659,2377.044678 794.975037,2311.699951 
	C820.025269,2250.363770 845.101196,2189.037842 870.169983,2127.709229 
	C870.800171,2126.167480 871.348022,2124.571289 872.161987,2123.129150 
	C874.647156,2118.725586 878.780945,2118.473633 881.386414,2122.720703 
	C882.761902,2124.962402 883.527100,2127.584717 884.519531,2130.054688 
	C914.814026,2205.447266 945.087830,2280.847900 975.397339,2356.234375 
	C994.898376,2404.737793 1014.472839,2453.211426 1033.967163,2501.717285 
	C1040.565308,2518.134766 1047.887573,2534.171387 1058.046997,2548.752441 
	C1064.016846,2557.320557 1071.099609,2564.644775 1080.531616,2569.582764 
	C1085.393921,2572.128174 1089.935303,2572.210693 1094.871826,2570.145508 
	C1112.606323,2562.727539 1121.825073,2549.218262 1123.605225,2530.330322 
	C1123.760986,2528.677246 1123.659668,2526.999023 1123.659668,2525.332520 
	C1123.660522,2411.004883 1123.659546,2296.677246 1123.658447,2182.349609 
	C1123.658325,2166.791016 1118.709229,2153.163086 1105.493042,2144.406006 
	C1099.063110,2140.145508 1090.914062,2138.431396 1083.462524,2135.791992 
	C1081.362915,2135.048340 1078.977905,2135.110352 1076.949829,2134.833740 
	C1075.546387,2131.416992 1075.704102,2129.015137 1079.491089,2128.583252 
	C1082.128418,2128.282471 1084.812622,2128.330078 1087.475952,2128.329590 
	C1153.139404,2128.318604 1218.809692,2127.754639 1284.463501,2128.549805 
	C1319.963135,2128.979736 1353.835938,2137.282959 1383.447632,2158.187012 
	C1421.991821,2185.396973 1437.222778,2222.823486 1430.735352,2269.239746 
	C1425.363647,2307.673584 1403.056274,2333.914307 1369.839600,2351.802979 
	C1345.691650,2364.807861 1319.648926,2371.304688 1292.307007,2372.292725 
	C1271.690674,2373.038086 1251.054688,2373.249512 1230.426880,2373.670654 
	C1226.801758,2373.744629 1223.173706,2373.681396 1218.645142,2373.681396 
	C1218.276367,2377.245361 1217.727661,2380.094727 1217.724487,2382.944580 
	C1217.671143,2430.608887 1217.801758,2478.273682 1217.638794,2525.937256 
	C1217.554443,2550.572998 1233.564819,2569.828369 1256.817017,2572.445068 
	C1259.116089,2572.703613 1261.576416,2573.059814 1263.549683,2574.130615 
	C1264.821411,2574.821045 1265.340088,2576.899414 1267.223145,2580.102539 
	C1257.984985,2580.194092 1250.465088,2580.268799 1241.954224,2580.343262 
M1318.353760,2325.187500 
	C1342.240356,2279.437256 1343.141602,2232.567139 1323.055664,2185.677734 
	C1312.956299,2162.101074 1295.285156,2145.152832 1269.238037,2139.085938 
	C1263.447266,2137.737061 1257.440430,2136.895752 1251.502686,2136.689453 
	C1240.638428,2136.311768 1229.751465,2136.581543 1218.345703,2136.581543 
	C1218.345703,2212.869873 1218.345703,2287.922119 1218.345703,2363.843262 
	C1235.184448,2364.287109 1251.418335,2365.791748 1267.507080,2362.922852 
	C1289.981445,2358.915039 1305.670532,2345.149658 1318.353760,2325.187500 
M428.999817,2413.673828 
	C438.650879,2413.673828 448.307831,2413.884766 457.951355,2413.614746 
	C467.719788,2413.341309 477.614624,2414.845215 488.661835,2412.330322 
	C466.353729,2355.992920 444.402069,2300.555664 422.450439,2245.118408 
	C421.675995,2245.104004 420.901550,2245.089355 420.127075,2245.074951 
	C412.609894,2263.739746 405.130157,2282.419922 397.564819,2301.065186 
	C390.065033,2319.549072 382.354767,2337.948242 374.965912,2356.475830 
	C367.553406,2375.062500 359.054779,2393.259766 352.544739,2413.673828 
	C378.499878,2413.673828 402.749847,2413.673828 428.999817,2413.673828 
M876.849182,2354.137939 
	C862.528259,2317.794922 848.207336,2281.451904 833.886414,2245.108887 
	C833.095398,2245.142090 832.304321,2245.175293 831.513306,2245.208496 
	C808.964783,2300.757324 786.137451,2356.193604 763.758179,2412.445801 
	C766.467041,2413.043457 767.713013,2413.557617 768.959595,2413.558838 
	C810.939758,2413.599365 852.920105,2413.606689 894.900146,2413.523682 
	C896.331970,2413.520752 897.761780,2412.543213 899.782471,2411.804443 
	C892.196045,2392.628174 884.858215,2374.080078 876.849182,2354.137939 
z"/>
<path fill="#D50140" opacity="1.000000" stroke="none" 
	d="
M1580.919189,2132.383301 
	C1543.495361,2143.919922 1532.718262,2182.096436 1545.770020,2214.784180 
	C1553.132812,2233.224121 1566.094238,2247.745605 1581.180664,2259.955811 
	C1606.534058,2280.475586 1632.826904,2299.829590 1658.446289,2320.026855 
	C1682.039307,2338.626953 1704.374146,2358.571045 1720.890991,2384.103516 
	C1743.582520,2419.181152 1747.658203,2456.830078 1734.151245,2495.885742 
	C1718.631592,2540.760986 1684.975952,2566.749756 1640.786377,2580.023682 
	C1607.725830,2589.954590 1574.076416,2590.740967 1539.998413,2584.848877 
	C1524.334595,2582.140625 1508.273804,2581.673828 1492.375610,2580.408203 
	C1487.472534,2580.018066 1482.512207,2580.347656 1476.366821,2580.347656 
	C1469.260864,2527.553955 1462.284912,2475.726562 1455.293213,2423.781006 
	C1462.009888,2421.450684 1463.576416,2424.108398 1464.343750,2428.854492 
	C1466.041016,2439.353516 1467.659424,2449.898193 1470.093750,2460.239746 
	C1477.274170,2490.743896 1488.523438,2519.500488 1510.051147,2542.980225 
	C1529.069580,2563.722900 1552.564697,2575.602539 1581.229614,2576.380127 
	C1598.117432,2576.838379 1614.287720,2574.881592 1629.775146,2567.354004 
	C1668.748413,2548.411377 1677.484619,2507.383301 1665.644775,2475.193115 
	C1659.673706,2458.959229 1648.861816,2445.883301 1637.016479,2433.522217 
	C1609.459351,2404.764648 1577.621216,2381.171631 1545.950562,2357.349365 
	C1523.815918,2340.700195 1502.705811,2322.910645 1485.475952,2300.996826 
	C1454.383301,2261.451660 1455.637817,2204.130371 1482.802856,2168.778564 
	C1497.270630,2149.950439 1516.584839,2137.859131 1538.639038,2129.977783 
	C1563.455688,2121.109375 1589.279297,2118.326904 1615.373657,2120.066406 
	C1633.915527,2121.302734 1652.305176,2124.688232 1670.807251,2126.705322 
	C1681.334717,2127.853027 1691.951904,2128.178467 1703.673462,2128.949707 
	C1706.547974,2169.138672 1707.926147,2209.136230 1709.893799,2248.785156 
	C1704.772095,2251.081055 1702.872559,2249.481689 1702.090942,2245.242920 
	C1700.824341,2238.374023 1699.497803,2231.498779 1697.768677,2224.735840 
	C1691.580322,2200.531982 1681.643799,2178.044189 1664.587524,2159.503418 
	C1642.188110,2135.154785 1614.826416,2124.644287 1580.919189,2132.383301 
z"/>
<path fill="#D50141" opacity="1.000000" stroke="none" 
	d="
M1816.518555,1407.442993 
	C1787.327637,1389.994629 1759.910156,1371.274414 1734.218628,1350.092773 
	C1730.897461,1347.354736 1727.692871,1344.408447 1724.811401,1341.218018 
	C1719.340942,1335.160522 1718.219238,1327.892212 1721.433350,1321.928589 
	C1724.999634,1315.311157 1732.945557,1311.102051 1740.822876,1312.642822 
	C1747.634644,1313.975220 1754.452393,1315.814331 1760.904419,1318.352295 
	C1785.126221,1327.880859 1807.279541,1341.395508 1829.269409,1355.092651 
	C1838.828491,1361.046875 1848.168945,1367.547363 1856.731689,1374.830811 
	C1861.589600,1378.963013 1865.057007,1384.955078 1868.366089,1390.571777 
	C1869.688599,1392.816406 1869.708984,1396.542969 1868.932983,1399.187500 
	C1865.310669,1411.531250 1845.890381,1420.969238 1834.088745,1416.154907 
	C1828.276245,1413.783691 1822.788696,1410.615112 1816.518555,1407.442993 
z"/>
<path fill="#D50141" opacity="1.000000" stroke="none" 
	d="
M217.506378,1393.453369 
	C205.997589,1400.248291 195.218582,1406.854004 184.206894,1413.045898 
	C176.620605,1417.311646 168.579514,1420.577148 159.543335,1419.616211 
	C150.376663,1418.641357 142.702301,1414.987305 139.043320,1406.017334 
	C135.553543,1397.462280 137.561600,1389.317505 143.969666,1383.043457 
	C150.103531,1377.038086 156.635895,1371.049072 163.984528,1366.745850 
	C189.222443,1351.967163 214.813507,1337.782349 240.450516,1323.699829 
	C248.385422,1319.341187 257.146240,1317.424805 266.385864,1317.582520 
	C275.488831,1317.737915 281.318268,1322.013794 284.947510,1330.105835 
	C288.470398,1337.960693 284.619598,1343.721436 279.549194,1348.816162 
	C275.109711,1353.276978 270.329498,1357.529541 265.177460,1361.125732 
	C249.633881,1371.975464 233.835800,1382.460571 217.506378,1393.453369 
z"/>
<path fill="#D50141" opacity="1.000000" stroke="none" 
	d="
M128.456894,387.427002 
	C158.785767,404.482117 186.889435,423.461212 212.679626,445.705872 
	C217.396576,449.774353 221.334076,454.901581 224.995117,459.997192 
	C228.922180,465.463165 230.172165,471.784698 226.055939,477.738953 
	C221.499969,484.329254 215.540359,489.165131 206.802231,487.415894 
	C201.614456,486.377350 196.347702,485.067505 191.532806,482.938202 
	C155.627441,467.059814 123.490311,445.315735 94.050217,419.481201 
	C91.819405,417.523560 89.854370,415.185883 88.093765,412.784363 
	C83.104874,405.979462 80.111954,398.942993 85.601685,390.798584 
	C91.013641,382.769531 98.613884,379.146729 107.877190,380.789612 
	C114.669601,381.994232 121.155823,384.925323 128.456894,387.427002 
z"/>
<path fill="#D50141" opacity="1.000000" stroke="none" 
	d="
M1829.849609,755.845459 
	C1822.749023,740.802979 1824.997437,734.096375 1838.676758,726.855408 
	C1855.047729,718.189758 1872.945923,714.232605 1890.779907,710.410156 
	C1908.606812,706.589233 1926.608887,703.399963 1944.672607,700.955933 
	C1952.401245,699.910278 1960.562256,700.871643 1968.378662,701.972412 
	C1977.446167,703.249329 1981.853271,709.849854 1983.420654,718.400818 
	C1985.418457,729.300293 1982.700195,737.103088 1974.340942,741.704895 
	C1968.282959,745.039734 1961.746460,747.918335 1955.073120,749.650818 
	C1926.767578,756.999329 1898.204346,763.141602 1868.842041,764.330505 
	C1861.950806,764.609558 1855.013306,764.647095 1848.139038,764.179626 
	C1841.418335,763.722534 1835.126343,761.617920 1829.849609,755.845459 
z"/>
<path fill="#D50140" opacity="1.000000" stroke="none" 
	d="
M142.037186,764.347046 
	C108.710732,762.956421 76.780441,758.798096 45.576797,749.917969 
	C42.077091,748.921997 38.623348,747.543030 35.389259,745.874512 
	C22.915964,739.439392 19.216694,720.828857 27.911188,709.671204 
	C31.538351,705.016418 36.133926,703.750122 41.850121,703.552551 
	C65.997604,702.718201 89.730003,706.007446 113.167786,711.065369 
	C130.694763,714.847717 148.078491,719.568359 165.174606,724.981018 
	C177.540710,728.896240 181.138809,735.814575 180.313416,748.665222 
	C179.759293,757.292847 175.688370,762.368103 166.960846,763.397278 
	C159.053528,764.329712 151.006485,764.077271 142.037186,764.347046 
z"/>
<path fill="#D50141" opacity="1.000000" stroke="none" 
	d="
M1868.523682,454.499573 
	C1850.376953,465.819550 1832.602417,476.319733 1813.151123,483.547089 
	C1809.166870,485.027496 1804.817993,485.732971 1800.570679,486.254211 
	C1792.925415,487.192413 1788.030762,482.784943 1784.297974,476.836334 
	C1780.665894,471.047852 1781.758911,465.294678 1785.302979,459.938538 
	C1787.309570,456.906158 1789.483032,453.840149 1792.146729,451.408813 
	C1819.770508,426.193634 1849.442993,403.769684 1882.722046,386.468414 
	C1890.410400,382.471375 1898.731689,379.940796 1907.656372,380.323120 
	C1918.313110,380.779663 1923.112183,385.800537 1923.721680,396.534393 
	C1924.320557,407.078278 1920.292114,415.499054 1912.212036,421.766266 
	C1898.024414,432.770752 1883.524536,443.372711 1868.523682,454.499573 
z"/>
<path fill="#D50141" opacity="1.000000" stroke="none" 
	d="
M622.450195,1800.582520 
	C616.249817,1813.195312 610.722656,1825.309570 604.310974,1836.935913 
	C601.835815,1841.424072 597.885742,1845.549561 593.687073,1848.553833 
	C579.830444,1858.468384 563.112976,1850.353760 561.766418,1833.286255 
	C561.054199,1824.259766 561.908264,1815.397095 565.299072,1806.814941 
	C576.925476,1777.389038 589.949280,1748.621216 605.517517,1721.057495 
	C608.117310,1716.454224 611.013000,1711.789673 614.697571,1708.070312 
	C625.992004,1696.669800 640.391235,1700.434448 644.324829,1715.918457 
	C645.581238,1720.864136 645.469055,1726.507324 644.583313,1731.587402 
	C640.445129,1755.322510 631.778992,1777.673828 622.450195,1800.582520 
z"/>
<path fill="#D50141" opacity="1.000000" stroke="none" 
	d="
M1530.047363,1747.904541 
	C1532.530273,1754.531128 1534.888184,1760.389282 1536.951172,1766.349487 
	C1539.788696,1774.546997 1538.313477,1781.151123 1531.944092,1787.984375 
	C1521.821045,1798.845093 1512.067017,1803.130615 1498.353638,1785.835693 
	C1476.876099,1758.748291 1462.411133,1727.741577 1450.449585,1695.555298 
	C1447.234497,1686.904053 1445.054321,1677.792480 1443.215332,1668.726562 
	C1441.301147,1659.290771 1445.801758,1654.587524 1455.306641,1653.581909 
	C1465.471313,1652.506592 1473.972656,1655.469360 1479.896851,1663.547241 
	C1488.514648,1675.297974 1497.057495,1687.197998 1504.440430,1699.736206 
	C1513.530762,1715.174438 1521.396118,1731.333862 1530.047363,1747.904541 
z"/>
<path fill="#D50241" opacity="1.000000" stroke="none" 
	d="
M80.724045,1100.145020 
	C72.688507,1099.424072 65.883995,1098.636108 63.469326,1089.956665 
	C61.091541,1081.410034 62.404858,1076.153687 69.559586,1070.790039 
	C71.927414,1069.015015 74.487022,1067.239624 77.242821,1066.277588 
	C105.852959,1056.290405 134.816330,1047.863037 165.495285,1047.671631 
	C168.146820,1047.655029 170.896942,1047.529663 173.432449,1048.147583 
	C178.699646,1049.431152 183.950165,1051.402466 185.312347,1057.427612 
	C186.707260,1063.597534 185.578934,1069.515503 180.282562,1073.636353 
	C176.897186,1076.270264 173.209229,1078.688110 169.323059,1080.477783 
	C141.511154,1093.285767 112.357193,1100.314819 80.724045,1100.145020 
z"/>
<path fill="#D50241" opacity="1.000000" stroke="none" 
	d="
M1926.653076,1063.147949 
	C1930.098755,1065.303955 1932.938965,1067.029297 1935.664062,1068.920532 
	C1941.316528,1072.842651 1944.419434,1078.297363 1942.934570,1085.106812 
	C1941.269165,1092.744995 1935.667969,1097.178833 1928.094238,1097.859619 
	C1921.190796,1098.480225 1914.074707,1098.500732 1907.219360,1097.563721 
	C1886.109497,1094.678589 1865.268066,1090.287231 1845.661621,1081.689697 
	C1839.388550,1078.938965 1833.374634,1074.975220 1828.215210,1070.455566 
	C1820.858643,1064.011108 1822.122803,1054.018433 1831.089600,1050.197266 
	C1837.262939,1047.566406 1844.695435,1045.981445 1851.304932,1046.620605 
	C1876.774170,1049.083374 1902.011108,1053.208008 1926.653076,1063.147949 
z"/>
<path fill="#D40241" opacity="1.000000" stroke="none" 
	d="
M372.112854,1660.162720 
	C375.189880,1654.200806 377.642487,1648.670898 381.034546,1643.794434 
	C394.145508,1624.946411 407.935211,1606.610596 424.713745,1590.779297 
	C430.714508,1585.117065 437.264862,1580.952515 446.184021,1583.939453 
	C453.440552,1586.369385 456.437103,1590.630249 454.651855,1598.264404 
	C453.378143,1603.711060 451.749115,1609.320679 449.010406,1614.136353 
	C436.816010,1635.579224 422.919525,1655.845337 405.239471,1673.248901 
	C402.650787,1675.797241 399.840607,1678.232666 396.783508,1680.168701 
	C391.134979,1683.746094 385.217987,1685.126709 379.092651,1680.862427 
	C373.096954,1676.688232 370.154236,1671.255737 371.467133,1663.855225 
	C371.641449,1662.872681 371.770142,1661.881836 372.112854,1660.162720 
z"/>
<path fill="#D50241" opacity="1.000000" stroke="none" 
	d="
M461.090118,70.977959 
	C458.386597,62.392929 455.730347,54.573936 453.710938,46.593788 
	C453.013000,43.835518 453.496155,40.586979 454.135010,37.717148 
	C456.169830,28.576487 463.584869,25.017136 471.371857,29.991289 
	C476.314789,33.148708 480.916565,37.281200 484.647705,41.818237 
	C500.608307,61.226490 511.848175,83.441673 521.648804,106.411102 
	C523.321167,110.330582 524.044006,114.665451 525.099854,118.835190 
	C526.520264,124.444733 525.550842,129.630325 520.855469,133.223053 
	C515.670654,137.190292 509.536926,137.649765 503.973114,134.432449 
	C500.059540,132.169403 496.323059,128.980820 493.603302,125.378242 
	C480.969330,108.643646 470.344574,90.649155 461.090118,70.977959 
z"/>
<path fill="#D50241" opacity="1.000000" stroke="none" 
	d="
M1517.975342,59.869251 
	C1523.362305,51.849510 1527.679688,43.811550 1533.673950,37.322712 
	C1537.455078,33.229649 1543.447998,30.232809 1548.969971,28.894156 
	C1560.105103,26.194723 1566.941650,33.658684 1564.404297,44.815987 
	C1560.826416,60.549011 1553.786743,74.945488 1545.374878,88.474976 
	C1536.632446,102.535889 1526.800537,115.942039 1517.003662,129.310989 
	C1514.000244,133.409546 1510.134888,138.387833 1503.757935,135.360886 
	C1497.895874,132.578262 1490.251343,125.421616 1491.833008,117.505615 
	C1492.606689,113.632980 1493.622925,109.683495 1495.309814,106.140282 
	C1502.587524,90.854050 1510.153931,75.705276 1517.975342,59.869251 
z"/>
<path fill="#D50241" opacity="1.000000" stroke="none" 
	d="
M1681.271973,1564.715088 
	C1687.792603,1572.306152 1694.020508,1579.233643 1699.768188,1586.538940 
	C1703.924194,1591.821045 1706.743164,1597.763428 1706.371094,1604.901245 
	C1705.774780,1616.342163 1697.974609,1622.166260 1687.412109,1617.609497 
	C1680.514282,1614.633667 1673.840210,1610.365723 1668.199341,1605.391479 
	C1649.843384,1589.204468 1634.711914,1570.259521 1623.212769,1548.597290 
	C1620.915649,1544.270264 1619.130127,1539.391113 1618.407715,1534.571777 
	C1617.186401,1526.423828 1623.680176,1520.573730 1631.303711,1523.557495 
	C1638.575439,1526.403809 1645.789673,1530.472900 1651.663574,1535.576294 
	C1661.918945,1544.486572 1671.126709,1554.602539 1681.271973,1564.715088 
z"/>

<path fill="#82415D" opacity="1.000000" stroke="none" 
	d="
M418.090607,998.592651 
	C418.155731,997.904297 419.093964,997.967285 419.563843,997.983887 
	C420.810181,1001.050110 421.586670,1004.099792 422.363129,1007.149475 
	C421.626099,1007.369568 420.889069,1007.589661 420.152039,1007.809814 
	C419.443207,1004.966858 418.734344,1002.123901 418.090607,998.592651 
z"/>
<path fill="#ffffff" opacity="1.000000" stroke="none" 
	d="
M1521.497803,1290.825195 
	C1521.084106,1290.343140 1520.592407,1289.831787 1520.100830,1289.320312 
	C1520.289062,1289.361694 1520.564819,1289.341797 1520.646484,1289.458130 
	C1520.792114,1289.665649 1520.820557,1289.955444 1521.187988,1290.497070 
	C1521.478149,1290.783447 1521.419922,1290.795898 1521.497803,1290.825195 
z"/>
<path fill="#ffffff" opacity="1.000000" stroke="none" 
	d="
M1317.976807,2325.812012 
	C1305.670532,2345.149658 1289.981445,2358.915039 1267.507080,2362.922852 
	C1251.418335,2365.791748 1235.184448,2364.287109 1218.345703,2363.843262 
	C1218.345703,2287.922119 1218.345703,2212.869873 1218.345703,2136.581543 
	C1229.751465,2136.581543 1240.638428,2136.311768 1251.502686,2136.689453 
	C1257.440430,2136.895752 1263.447266,2137.737061 1269.238037,2139.085938 
	C1295.285156,2145.152832 1312.956299,2162.101074 1323.055664,2185.677734 
	C1343.141602,2232.567139 1342.240356,2279.437256 1317.976807,2325.812012 
z"/>

<path fill="#D50140" opacity="1.000000" stroke="none" 
	d="
M987.159058,1273.219971 
	C942.600037,1255.600098 900.604797,1234.908691 862.646240,1206.602539 
	C829.043213,1181.544434 802.654175,1150.261841 781.351562,1114.363403 
	C754.213501,1068.630981 738.062866,1018.656372 724.288025,967.761230 
	C710.625427,917.280396 700.096619,866.119141 692.824951,814.343323 
	C689.636597,791.641235 687.576843,768.755737 685.786011,745.892273 
	C684.805359,733.372070 685.054932,720.711243 685.471130,708.137695 
	C685.943359,693.871704 695.089539,686.874634 708.008972,684.018921 
	C716.444397,682.154419 724.996033,680.813721 733.498718,679.255676 
	C771.451965,672.301025 807.168274,658.803650 841.859558,642.280701 
	C889.346069,619.663574 932.590271,590.517883 973.268311,557.349182 
	C981.772339,550.415161 991.137634,544.535889 999.623413,537.581604 
	C1007.623352,531.025574 1014.904846,531.463440 1022.942383,537.315186 
	C1036.401733,547.114258 1050.370117,556.224670 1063.675049,566.222839 
	C1094.893066,589.681885 1127.225586,611.399902 1162.255371,628.736206 
	C1190.691528,642.809326 1220.209595,654.178955 1251.863647,658.735413 
	C1262.367798,660.247498 1273.056396,660.439026 1283.597900,661.742249 
	C1292.114746,662.795166 1300.957031,663.458252 1308.905518,666.352417 
	C1321.589844,670.970764 1329.085083,680.774170 1328.197388,694.778625 
	C1327.104370,712.018494 1325.869141,729.333313 1323.158813,746.371277 
	C1314.536621,800.572021 1305.802612,854.769226 1295.936035,908.752869 
	C1289.061401,946.367310 1282.313232,984.216553 1271.832642,1020.910950 
	C1255.858765,1076.838623 1229.437988,1127.986206 1190.441162,1171.802979 
	C1161.104858,1204.765015 1126.154663,1230.650635 1086.916138,1250.695801 
	C1073.874512,1257.358154 1060.525635,1263.443481 1047.158081,1269.437866 
	C1027.965576,1278.044312 1008.253601,1280.753052 987.159058,1273.219971 
M1278.291260,721.913391 
	C1278.189941,711.567200 1270.224243,710.073425 1262.720459,708.242676 
	C1248.509277,704.775269 1234.175903,701.779114 1220.045166,698.016541 
	C1176.641479,686.459595 1135.662598,669.008972 1097.670532,645.087585 
	C1074.584839,630.551758 1052.697021,614.117859 1029.668457,599.485168 
	C1006.060181,584.484192 1014.240540,583.583374 990.817322,600.740051 
	C962.085388,621.785095 934.176331,643.942139 903.329163,661.976257 
	C856.756714,689.203674 808.099060,711.039978 754.611145,720.751587 
	C747.142151,722.107727 739.767273,723.982239 731.778992,725.742310 
	C731.778992,732.499695 731.243347,738.505798 731.871216,744.387634 
	C734.657471,770.487793 736.623901,796.747620 740.998901,822.592163 
	C752.783264,892.205078 769.112305,960.749084 791.403015,1027.853149 
	C816.288391,1102.768311 864.215576,1158.386353 931.677795,1197.994873 
	C955.590332,1212.034546 981.313171,1222.170166 1006.985474,1232.436646 
	C1013.126770,1234.892700 1018.255371,1234.770264 1023.975037,1231.848511 
	C1034.647705,1226.396973 1045.559082,1221.414917 1056.285522,1216.065796 
	C1121.693115,1183.447754 1170.262329,1133.876831 1203.622437,1069.152344 
	C1225.159424,1027.367065 1238.550049,982.919189 1246.149048,936.630493 
	C1254.444214,886.100647 1263.054199,835.620544 1270.984009,785.033630 
	C1274.171265,764.701172 1275.913696,744.142273 1278.291260,721.913391 
z"/>

<path fill="#D60140" opacity="1.000000" stroke="none" 
	d="
M984.287964,918.285034 
	C1019.004211,869.789368 1054.537476,822.810608 1093.138062,778.268738 
	C1104.195801,765.509155 1116.801636,754.036438 1129.202637,742.517273 
	C1136.153442,736.060791 1138.520996,735.695740 1145.870361,741.301270 
	C1157.196411,749.940002 1167.924683,759.435730 1178.315674,769.196899 
	C1183.636230,774.195068 1183.571655,777.001953 1178.926025,783.217773 
	C1169.571411,795.733948 1160.034790,808.147888 1149.955933,820.082520 
	C1122.623657,852.447144 1097.666016,886.567505 1075.729370,922.739929 
	C1052.267090,961.427734 1030.333374,1001.039673 1007.122192,1039.883667 
	C998.619446,1054.113037 988.623108,1067.484863 978.796570,1080.872314 
	C974.476624,1086.757568 968.649719,1091.386230 961.253479,1093.366211 
	C954.728760,1095.112671 948.690002,1094.231934 943.415588,1089.809204 
	C940.358459,1087.245605 937.227661,1084.728149 934.452209,1081.876465 
	C901.720581,1048.245972 868.989380,1014.614502 836.399658,980.846680 
	C826.485413,970.573975 817.005188,959.882263 806.750977,948.758423 
	C815.509583,933.435486 826.579712,920.493958 841.246399,910.850769 
	C846.057068,907.687805 851.642700,908.124817 856.415649,911.106018 
	C864.862671,916.382019 873.338867,921.714783 881.203430,927.798706 
	C897.778687,940.620911 913.888367,954.043030 930.338745,967.029358 
	C942.857849,976.912231 943.173096,976.934692 952.508484,963.944092 
	C963.189392,949.081177 973.443054,933.911133 984.287964,918.285034 
z"/>
</svg>